<?xml version="1.0" encoding="utf-8"?>
<!-- Generator: Adobe Illustrator 23.0.3, SVG Export Plug-In . SVG Version: 6.00 Build 0)  -->
<svg version="1.1" id="Слой_1" xmlns="http://www.w3.org/2000/svg" xmlns:xlink="http://www.w3.org/1999/xlink" x="0px" y="0px"
	 viewBox="0 0 120 29" style="enable-background:new 0 0 120 29;" xml:space="preserve">
<style type="text/css">
	.st0{fill:#FFFFFF;}
</style>
<g>
	<g>
		<path class="st0" d="M9,12.8C8.8,13,8.4,13.1,8.1,13H5.3c2.8-6.6,5.2-11.6,5.8-13h7.7c0.3,0.6,0.9,2,1.8,4c-0.7,0.2-1.4,0.5-2,0.9
			l0,0c0,0-1.1,0.7-2.6,2c-0.3-0.8-0.7-1.7-1-2.5c-0.7,1.5-1.4,3.3-2,5L9,12.8L9,12.8z M2.4,21.7h6.7l-2.2,6.8H0
			C0.8,26.1,1.6,23.8,2.4,21.7L2.4,21.7z M25.1,18.4c0.2-0.4,0.4-0.8,0.6-1.2c1.5,3.7,2.9,7.5,4.2,11.3h-6.8L20.8,22
			C22.6,21.3,24.1,20,25.1,18.4L25.1,18.4z M23.8,17.6L23.8,17.6L23.8,17.6c-1,1.3-2.6,2.1-4.2,2h-3.1h3.1
			C21.3,19.7,22.8,19,23.8,17.6c-2.2,3.5-6.1,3.9-7.7,3.9H16l2.5,7H17l-2.8-7.7c0-0.1,0-0.1,0.1-0.2c0.7-0.3,1.5-0.6,2.2-1l0,0
			c1.8-1.3,3.3-3.1,4.1-5.2c0-0.1,0-0.2,0-0.2c-0.1,0-0.2,0-0.2,0c-2.2,2.5-5.4,3.9-8.7,3.8H8c-0.1,0-0.2-0.1-0.1-0.2
			c0.1-0.2,0.2-0.3,0.3-0.5c2.3-3.1,5-5.9,7.9-8.5c1.1-0.9,2.2-1.8,3.4-2.7c0.9-0.6,2.1-1,3.2-0.9c1.5,0,2.9,0.7,3.8,2L25.9,8
			c0,0.1-0.1,0.1-0.1,0.1c0,0.1,0,0.1,0.1,0.1l0.8,0.4C26.3,11.8,25.3,14.8,23.8,17.6L23.8,17.6z M7.9,17.8C7.8,17.9,7.9,18,8,18
			h3.7c2.2,0.1,4.4-0.5,6.2-1.7c0.9-0.6,1.7-1.3,2.5-2.1c0.1-0.1,0.1,0,0.2,0c-0.2,0.3-0.3,0.6-0.5,0.8l0,0c-2.1,3.4-6,5.4-10,5.2
			H3.2C3,20.2,3,20,3.1,19.9L4.9,18c-2,0.1-3.9-1.2-4.5-3.1c0-0.1-0.1-0.3,0.1-0.3h7.7c0.7,0,1.3-0.2,1.8-0.7l6.1-5.2
			C13,11.5,10.3,14.5,7.9,17.8L7.9,17.8z M26.5,7.2L26.5,7.2H29c0.1,0,0.2,0.1,0.2,0.2s0,0.1-0.1,0.1l-2.3,1.1L26,8.2
			c-0.1,0-0.1-0.1-0.1-0.1S25.9,8,26,8L26.5,7.2L26.5,7.2z M23,7.6L23,7.6c0.3-0.3,0.7-0.3,1,0c-0.5-0.5-1.3-0.5-1.8,0
			c-0.4,0.5-0.5,1.2,0,1.7l0,0c0.5,0.5,1.3,0.6,1.8,0.1s0.6-1.3,0.1-1.8c0.2,0.3,0.2,0.7-0.1,1c-0.3,0.2-0.7,0.2-1-0.1
			C22.7,8.3,22.8,7.9,23,7.6z M18,22.8c0.5-0.1,0.9-0.2,1.4-0.3l2.2,6.1h-1.5L18,22.8L18,22.8z M94.8,15.6c-0.8-0.2-1.6-0.3-2.4-0.3
			c-1.8,0-2.7,1.7-2.7,5c0,2.7,0.8,4.1,2.4,4.1c1,0,2-0.4,2.7-1.2V15.6z M84,20.6c0-6.3,3.1-9.7,8.7-9.7c2.7-0.1,5.4,0.3,7.9,1.1
			v16.5H96l-0.3-1.9c-1.3,1.6-3.3,2.5-5.3,2.3C86.2,29,84,26.5,84,20.6L84,20.6z M114.2,10.9c3.9,0,5.8,2.1,5.8,6.3v11.3h-5.8V17.9
			c0.1-0.7-0.2-1.4-0.6-1.9c-0.5-0.5-1.2-0.7-1.9-0.7c-1,0-2,0.5-2.6,1.2v12h-5.8V11.2h4.6l0.4,2C109.8,11.5,112,10.7,114.2,10.9
			L114.2,10.9z M76.2,10.9c3.9,0,5.9,2.1,5.9,6.3v11.3h-5.8V17.9c0.1-0.7-0.2-1.4-0.6-1.9c-0.5-0.5-1.2-0.7-1.9-0.7
			c-1,0-2,0.5-2.6,1.2v12h-5.8V4.7h5.8v7.6C72.6,11.3,74.3,10.7,76.2,10.9L76.2,10.9z M62.9,23l0.8,4.4c-2,1.1-4.2,1.6-6.4,1.6
			c-5.6,0-8.5-3.1-8.5-9s3.1-9.1,8.7-9.1c2-0.1,4,0.3,5.9,1.2l-0.8,4.8c-1.1-0.7-2.4-1.1-3.7-1.1c-2.8,0-4.2,1.6-4.2,4.1
			c0,2.6,1.4,4.4,4.2,4.4C60.3,24.1,61.7,23.7,62.9,23z M41.2,11.2h5.6v17.3h-4.6l-0.3-1.9c-1.5,1.6-3.6,2.5-5.8,2.3
			c-3.9,0-5.8-2.1-5.8-6.3V11.2h5.6V22c-0.1,0.7,0.2,1.4,0.7,1.9s1.2,0.7,1.9,0.6c1,0,2-0.5,2.7-1.2L41.2,11.2z"/>
	</g>
</g>
</svg>
