<?xml version="1.0" encoding="utf-8"?>
<!-- Generator: Adobe Illustrator 23.0.3, SVG Export Plug-In . SVG Version: 6.00 Build 0)  -->
<svg version="1.1"
	 id="svg2" xmlns:cc="http://creativecommons.org/ns#" xmlns:dc="http://purl.org/dc/elements/1.1/" xmlns:inkscape="http://www.inkscape.org/namespaces/inkscape" xmlns:rdf="http://www.w3.org/1999/02/22-rdf-syntax-ns#" xmlns:sodipodi="http://sodipodi.sourceforge.net/DTD/sodipodi-0.dtd" xmlns:svg="http://www.w3.org/2000/svg"
	 xmlns="http://www.w3.org/2000/svg" xmlns:xlink="http://www.w3.org/1999/xlink" x="0px" y="0px" viewBox="0 0 121.3 17.4"
	 style="enable-background:new 0 0 121.3 17.4;" xml:space="preserve">
<style type="text/css">
	.st0{fill:#FFFFFF;}
</style>
<g>
	<path class="st0" d="M40.5,6.8c-0.4-0.2-0.8-0.3-1.1-0.5l-0.2-0.1c-0.3-0.2-0.7-0.4-0.7-0.6c0-0.3,0-0.7,0.2-0.9
		c0.4-0.3,0.9-0.5,1.5-0.4s1.1,0.4,1.4,0.8l0.3,0.5l0.5-0.2C42.5,5.2,42.7,5,43,4.9c0.2-0.1,0.4-0.2,0.6-0.3l0.5-0.3l-0.3-0.6
		c-0.5-1.1-1.6-2-2.9-2.3c-1.3-0.3-2.8,0-3.8,0.7c-0.9,0.6-1.5,1.7-1.6,2.9c-0.1,1.1,0.4,2.1,1.1,2.7c0.6,0.7,1.5,1,2.3,1.4
		c0.8,0.3,1.6,0.7,2.1,1.3c0.4,0.5,0.2,1.2-0.1,1.6c-0.3,0.5-0.8,0.9-1.5,0.9c-1-0.1-1.7-1-1.7-1.9l-0.1-0.7L37,10.5
		c-0.3,0.1-0.6,0.1-0.9,0.2c-0.3,0.1-0.5,0.1-0.8,0.2L34.7,11l0.1,0.6c0.4,1.7,1.3,3.1,2.7,3.7c0.6,0.3,1.3,0.4,2,0.4
		c1.4,0,2.7-0.6,3.6-1.6c1.4-1.5,1.5-3.8,0.3-5.5C42.7,7.7,41.6,7.2,40.5,6.8z"/>
	<polygon class="st0" points="2.8,1.6 0,1.6 0,15.6 6.7,15.6 6.7,12.9 2.8,12.9 	"/>
	<path class="st0" d="M28,9.9c0,0.8-0.2,1.6-0.5,2.2c-0.3,0.5-0.9,0.9-1.6,1c-0.8,0.1-1.5-0.1-1.9-0.5c-0.5-0.7-0.8-1.6-0.8-2.8V1.6
		h-3v0.6c0,1.8,0,3.7,0,5.5C20,5.9,19.1,4.2,17.6,3c-1.7-1.3-3.7-1.9-5.7-1.6l0,0C8.4,2,5.6,5.1,5.6,8.4c0,2,0.8,4,2.2,5.3
		c1.3,1.3,3.1,2.1,5.1,2.1c0,0,0,0,0.1,0c2,0,3.8-0.7,5.1-2c1.3-1.2,2.1-2.8,2.2-4.4c0,0.3,0,0.7,0,1c0,1.1,0.2,2.7,1.4,3.8
		c0.9,1.1,2.4,1.7,4,1.7c0.1,0,0.2,0,0.3,0c1.6-0.1,3.1-0.8,3.9-2c0.8-0.9,1.2-2.1,1.2-3.8V1.6H28V9.9z M16.3,11.4
		c-1,1.4-3.2,2-4.9,1.4c-2-0.7-3.2-2.8-2.9-4.9c0.3-1.8,1.8-3.3,3.6-3.7c1.2-0.2,2.7,0.1,3.6,1C17.5,6.6,17.7,9.5,16.3,11.4z"/>
	<rect x="31.7" y="1.6" class="st0" width="3" height="14.1"/>
	<path class="st0" d="M118.4,1.5V10c-1.2-1.3-2.5-2.6-3.7-3.9c-1.6-1.7-3.2-3.3-4.8-5L108.8,0v15.6h2.9V7c1.2,1.3,2.5,2.6,3.7,3.9
		c1.6,1.7,3.2,3.4,4.8,5l1.1,1.1V1.5H118.4z"/>
	<path class="st0" d="M99.5,1.4c-2.8,0.3-5.4,2.4-6.2,5.1c-0.7,2.2-0.3,4.6,1,6.4c1.3,1.7,3.3,2.8,5.2,3c0.3,0,0.6,0,0.9,0
		c2,0,3.7-0.7,5-1.9c2.7-2.5,3-6.9,0.8-9.7C104.6,2.2,102,1.1,99.5,1.4z M104.1,11.2c-0.8,1.2-2.2,2-3.7,2c-2.1,0-4.1-1.8-4.4-3.9
		C95.8,8.2,96.1,7,96.8,6c0.7-0.9,1.6-1.6,2.6-1.7h0.1c0.3-0.1,0.7-0.1,1-0.1c1.1,0,2.2,0.4,2.9,1.3C105,6.9,105.3,9.4,104.1,11.2z"
		/>
	<path class="st0" d="M58.7,1.5L58.5,2c-0.6,1.5-1.2,3.1-1.8,4.6c-0.4,1.1-0.9,2.1-1.3,3.2c-0.4-1.1-0.9-2.1-1.3-3.2
		c-0.6-1.6-1.3-3.1-1.9-4.7L52,1.6h-3.2l0.4,0.9c1,2.3,1.9,4.5,2.8,6.8c0.9,2.3,1.8,4.5,2.8,6.8l0.6,1.4L56,16
		c0.7-1.7,1.4-3.4,2.1-5.1c1.2-2.8,2.3-5.7,3.5-8.5L62,1.5"/>
	<path class="st0" d="M70,7.2c0,0.6,0,1.1-0.1,1.7c0,0.8,0,1.5-0.1,2.3c-0.1,0.6-0.4,1.2-0.8,1.6c-0.9,0.6-2.3,0.5-3-0.1
		c-0.7-0.7-0.8-1.7-0.8-3v-8h-3v9c0,1.5,0.6,3,1.7,4c0.9,0.9,2.2,1.3,3.6,1.3c0.2,0,0.4,0,0.6,0c1.6-0.2,2.9-0.9,3.7-2.1
		c1-1.4,1-3.1,1-4.6V1.6H70V7.2z"/>
	<rect x="73.6" y="1.6" class="st0" width="3" height="14.1"/>
	<polyline class="st0" points="77.5,4.3 80.5,4.3 80.5,15.5 83.3,15.5 83.3,4.3 88.2,4.3 88.2,15.6 91.1,15.6 91.1,4.3 94.1,4.3 
		94.1,1.6 77.5,1.6 	"/>
</g>
</svg>
