<?xml version="1.0" encoding="utf-8"?>
<!-- Generator: Adobe Illustrator 23.0.3, SVG Export Plug-In . SVG Version: 6.00 Build 0)  -->
<svg version="1.1"
	 id="svg2" xmlns:cc="http://creativecommons.org/ns#" xmlns:dc="http://purl.org/dc/elements/1.1/" xmlns:inkscape="http://www.inkscape.org/namespaces/inkscape" xmlns:rdf="http://www.w3.org/1999/02/22-rdf-syntax-ns#" xmlns:sodipodi="http://sodipodi.sourceforge.net/DTD/sodipodi-0.dtd" xmlns:svg="http://www.w3.org/2000/svg"
	 xmlns="http://www.w3.org/2000/svg" xmlns:xlink="http://www.w3.org/1999/xlink" x="0px" y="0px" viewBox="0 0 120 60.2"
	 style="enable-background:new 0 0 120 60.2;" xml:space="preserve">
<style type="text/css">
	.st0{fill:#FFFFFF;}
</style>
<g id="layer1" transform="translate(-90.01231,-483.28295)" inkscape:groupmode="layer" inkscape:label="Calque 1">
	<path id="path2996" inkscape:connector-curvature="0" class="st0" d="M146.7,543.4c-4-0.1-8.4-0.5-12.3-1
		c-16.5-2.2-30.4-7.9-38.1-15.6c-3.3-3.3-5.3-6.9-6-10.5c-0.2-1.2-0.3-1.7-0.3-3s0.1-1.8,0.3-3c0.5-2.4,1.6-4.8,3.2-7.1
		c3.6-5.1,10-9.7,18.4-13.1c14-5.8,32.3-8.1,50.1-6.3c20.9,2.1,38.1,9.7,45,19.9c3.1,4.7,3.9,9.7,2.2,14.7c-1,2.9-2.8,5.7-5.5,8.3
		c-7.3,7.3-20.2,12.8-35.6,15.2C161.2,543.2,154,543.6,146.7,543.4L146.7,543.4z M155.8,539.6c8.4-0.5,15.4-1.7,22.3-3.9
		c5.5-1.7,10.6-4,14.5-6.7c2-1.3,3.3-2.4,4.9-4c1.8-1.8,3-3.5,4-5.4c1.1-2.2,1.5-3.9,1.5-6.2s-0.4-4.1-1.5-6.3
		c-0.9-1.9-2.2-3.5-3.9-5.3c-2.6-2.6-5.8-4.8-9.9-6.9c-7.7-3.9-17.4-6.4-28.2-7.4c-6-0.5-12.8-0.5-18.8,0
		c-15.2,1.4-28.2,5.9-36.3,12.5c-1,0.8-2.8,2.7-3.6,3.6c-2.7,3.4-4,7.1-3.7,10.7c0.3,3.9,2.1,7.3,5.5,10.7c2.6,2.6,5.6,4.7,9.6,6.7
		c9.1,4.6,20.2,7.2,33.3,7.9C146.9,539.7,154.4,539.7,155.8,539.6L155.8,539.6z M113.3,528.6c-0.1,0-0.2-0.1-0.3-0.2
		c-0.1-0.1-0.1-0.2-0.1-14.1v-14l-0.2-0.2c-0.2-0.2-0.2-0.2-0.8-0.2h-0.7V499v-0.9h4.8h4.8l0.2,0.2l0.2,0.2v5c0,5.5,0,5.3,0.4,5.3
		c0.2,0,0.3-0.1,1.7-2.1c3.7-5.2,5.7-8,5.8-8.2c0.4-0.5,0.2-0.5,4.9-0.5h4.1l0.2,0.2c0.2,0.2,0.3,0.5,0.2,0.6s-1.8,2.8-8.1,12
		c-0.7,1-0.9,1.3-0.9,1.5s0.4,0.8,2.3,3.5c8.4,11.8,8.4,11.9,8.4,12.1c0,0.2,0,0.3-0.1,0.4l-0.2,0.2h-4.3c-4.3,0-4.3,0-4.6-0.1
		c-0.2-0.1-0.4-0.2-0.5-0.3s-2.1-2.8-4.4-6.1c-2.3-3.3-4.3-6-4.3-6c-0.2-0.1-0.5-0.1-0.6,0.1c-0.1,0.1-0.1,1.5-0.1,6.1v5.9l-0.2,0.2
		l-0.2,0.2H117C115.1,528.6,113.4,528.6,113.3,528.6L113.3,528.6z M146.1,528.6c-0.1,0-0.2-0.2-0.3-0.3s-0.1-3.2-0.1-14.1v-13.9
		l-0.2-0.2c-0.2-0.2-0.2-0.2-0.8-0.2h-0.6V499v-1h4.8h4.8l0.2,0.2l0.2,0.2v14.9v14.9l-0.2,0.2l-0.2,0.2h-3.8
		C147.1,528.6,146.3,528.6,146.1,528.6L146.1,528.6z M160.2,528.6c-0.2-0.1-0.3-0.3-0.3-0.5c0-0.1,0.9-3,2.1-6.4
		c1.1-3.4,2.9-8.8,4-12s2.2-6.6,2.5-7.5s0.6-1.7,0.6-1.8s-0.1-0.2-0.1-0.3c-0.1-0.1-0.2-0.2-0.8-0.2h-0.6V499v-0.9h5.8
		c3.8,0,5.9,0,6.1,0.1c0.1,0,0.3,0.1,0.3,0.2c0.1,0.2,0.7,2.1,3.8,11.2c5,14.9,6.1,18.3,6.1,18.5c0,0.2-0.1,0.5-0.3,0.5
		c-0.1,0.1-1.3,0.1-3.8,0.1c-3.3,0-3.7,0-3.9-0.1c-0.1-0.1-0.3-0.2-0.3-0.3s-0.6-1.6-1.1-3.3c-5.3-16.5-5.1-16-5.3-16.1
		c-0.1-0.1-0.2-0.1-0.4,0c-0.1,0.1-0.3,0.7-3.2,9.8c-0.8,2.6-1.7,5.5-2,6.3s-0.6,1.9-0.8,2.4c-0.3,0.9-0.4,1.2-0.8,1.3
		C167.5,528.7,160.4,528.7,160.2,528.6L160.2,528.6z"/>
</g>
</svg>
