<?xml version="1.0" encoding="utf-8"?>
<!-- Generator: Adobe Illustrator 23.0.3, SVG Export Plug-In . SVG Version: 6.00 Build 0)  -->
<svg version="1.1" id="svg1906" xmlns:svg="http://www.w3.org/2000/svg"
	 xmlns="http://www.w3.org/2000/svg" xmlns:xlink="http://www.w3.org/1999/xlink" x="0px" y="0px" viewBox="0 0 120 28.4"
	 style="enable-background:new 0 0 120 28.4;" xml:space="preserve">
<style type="text/css">
	.st0{fill-rule:evenodd;clip-rule:evenodd;fill:#FFFFFF;}
</style>
<g id="g3549" transform="matrix(2.740703,0,0,2.740703,7.086653,8.865505)">
	<path id="path54" class="st0" d="M1.3-2.1c-2.3,0-2.5,2.3-2.5,2.3h-1v-3.4h8.3c0,0,0,2.6-2.5,5.3c0,0-2.3,2.7-2.4,3.9h1.4
		c2,0,2.1-2.3,2.1-2.3h1.1v3.4h-8.5c0,0-0.3-2.5,2.6-5.6c0,0,1.9-2,2.3-3.6L1.3-2.1"/>
	<path id="path56" class="st0" d="M22.5,7.1V6h-0.3c-0.4,0-0.8-0.4-0.8-0.8v-6.5c0-0.5,0.4-0.8,0.8-0.8h0.3v-1.1H17v1.1h0.3
		c0.5,0,0.8,0.4,0.8,0.8v6.5c0,0.5-0.3,0.8-0.8,0.8H17v1.1H22.5"/>
	<path id="path58" class="st0" d="M15.9,7.1V3.8h-1.1c0,0-0.3,2.3-2.2,2.3h-1.1V2.5h0.4c0.4,0,0.8,0.4,0.8,0.8v0.4h1.1V0.1h-1.1v0.4
		c0,0.5-0.4,0.8-0.8,0.8h-0.4v-3.5h1.1c2,0,2.2,2.3,2.2,2.3h1.1v-3.4H7.1v1.1h0.3c0.4,0,0.8,0.4,0.8,0.8v6.5C8.1,5.6,7.8,6,7.4,6
		H7.1v1.1H15.9"/>
	<path id="path60" class="st0" d="M28.3-2.1c2.3,0,2.5,2.3,2.5,2.3h1v-3.4h-7.9c0,0-1.3,1.6,2,5.3c0,0,2.3,2.7,2.4,3.9h-1.4
		c-2,0-2.1-2.3-2.1-2.3h-1.1v3.4h8c0,0,1.4-1.6-2.1-5.6c0,0-2-1.9-2.3-3.6L28.3-2.1"/>
	<path id="path62" class="st0" d="M37.6-2.1c2.2,0,2.4,2.3,2.4,2.3h1.1v-3.4h-8c0,0-1.3,1.6,2,5.3c0,0,2.3,2.7,2.4,3.9h-1.4
		C34.3,6,34,3.8,34,3.8h-1.1v3.4h8c0,0,1.4-1.6-2.1-5.6c0,0-1.9-1.9-2.2-3.6L37.6-2.1"/>
</g>
</svg>
