<?xml version="1.0" encoding="utf-8"?>
<!-- Generator: Adobe Illustrator 23.0.3, SVG Export Plug-In . SVG Version: 6.00 Build 0)  -->
<svg version="1.1" id="Слой_1" xmlns="http://www.w3.org/2000/svg" xmlns:xlink="http://www.w3.org/1999/xlink" x="0px" y="0px"
	 viewBox="0 0 120 48.4" style="enable-background:new 0 0 120 48.4;" xml:space="preserve">
<style type="text/css">
	.st0{fill:#FFFFFF;}
</style>
<path class="st0" d="M24.4,31.1c0,0.5,0,1,0.3,1.5H12.9c0.3-0.5,0.3-1,0.3-1.5V16.4c0-0.5,0-1-0.3-1.5h11.8c-0.3,0.5-0.3,1-0.3,1.5
	L24.4,31.1z M96.8,26.1L95.2,22c-0.1-0.4-0.3-0.8-0.3-1.2c-0.1,0.4-0.2,0.8-0.3,1.2c-0.1,0.2-0.7,2-1.5,4.1H96.8z M110.4,32.6H99.1
	c0.1-0.5-0.1-1-0.3-1.5c0,0-0.2-0.4-0.4-1l-0.1-0.3h-6.5l-0.1,0.3c0,0-0.2,0.5-0.4,1c-0.2,0.5-0.4,1-0.3,1.5h-8.9
	c0.4-0.4,0.6-1,0.8-1.5l5.3-14.7c0.2-0.5,0.4-1,0.3-1.5h15.1c-0.1,0.5,0.1,1,0.3,1.5c0.4,1.1,5.3,13.6,5.7,14.6
	C109.7,31.6,110,32.1,110.4,32.6z M80.6,19.8c-0.5-0.2-1-0.2-1.5-0.2h-8.8v2.3h8.4v3.7h-8.4v2.3h8.8c0.5,0,1,0,1.5-0.3v4.9H59.7
	C60,32,60,31.5,60,31V16.4c0-0.5,0-1-0.3-1.5h20.9V19.8z M40.6,14.9c-0.3,0.5-0.3,1-0.3,1.5v6.4c0,0,3.5-4.5,4.2-5.5
	c0.6-0.8,1.3-1.9,1.3-2.4h11.3c-0.8,0.5-1.6,1.4-2.3,2.3l-4.1,5c0,0,5.2,7.9,5.9,8.9c0.4,0.5,0.8,1.1,1.3,1.5h-13
	c0-0.5-0.5-1.6-1-2.4c-0.6-0.8-3.5-5.3-3.5-5.3v6.2c0,0.5,0,1,0.3,1.5h-11c0.3-0.5,0.3-1,0.3-1.5V16.4c0-0.5,0-1-0.3-1.5H40.6z
	 M0,48.4V0h120v48.4H0z M2.3,24.2c0,11.7,24.2,21.4,57.7,21.4s57.6-9.7,57.6-21.4S93.4,2.8,60,2.8S2.3,12.5,2.3,24.2L2.3,24.2z"/>
</svg>
