<?xml version="1.0" encoding="utf-8"?>
<!-- Generator: Adobe Illustrator 23.0.3, SVG Export Plug-In . SVG Version: 6.00 Build 0)  -->
<svg version="1.1" id="Слой_1" xmlns="http://www.w3.org/2000/svg" xmlns:xlink="http://www.w3.org/1999/xlink" x="0px" y="0px"
	 viewBox="0 0 120 24.6" style="enable-background:new 0 0 120 24.6;" xml:space="preserve">
<style type="text/css">
	.st0{fill:#FFFFFF;}
</style>
<g>
	<g>
		<path class="st0" d="M87.8,7.3c-0.3-1.2-1.6-1.9-2.8-1.6l0,0c-1.2,0.3-2,1.6-1.6,2.8l3.6,13c0.3,1.2,1.6,1.9,2.8,1.6
			c1.2-0.3,1.9-1.6,1.6-2.8L87.8,7.3z M87.4,24.6C81.7,24.6,77,20,77,14.4S81.7,4.2,87.4,4.2c5.7,0,10.4,4.6,10.4,10.2
			C97.8,20.1,93.2,24.6,87.4,24.6z M43.8,18c0-2-1.6-3.6-3.7-3.6c-2,0-3.7,1.6-3.7,3.6l0,0c0,2,1.6,3.6,3.6,3.7c2,0,3.7-1.5,3.7-3.5
			L43.8,18L43.8,18z M70.3,4.3L70.3,4.3c2,0,3.7,1.6,3.7,3.6v16.2h-7.3V9.6c0-1-0.8-1.8-1.8-1.8s-1.8,0.8-1.8,1.8V24h-7.3V7.8h-5
			l6.9-3.2c0.5-0.2,1-0.3,1.6-0.3c1.8,0,3.3,1.3,3.6,3l5.8-2.7C69.2,4.4,69.7,4.2,70.3,4.3L70.3,4.3z M70.3,4.3
			C70.7,4.3,70.4,4.3,70.3,4.3z M53,24h-7.3l-1-3.4C42.9,23,40,24.5,37,24.5c-4.4,0-8-2.9-8-6.5s3.6-6.4,8-6.4
			c2.2,0,4.2,0.8,5.8,2.1l-1.6-5.9h-9.4l9.1-3.2c3.1-1.1,6.5,0.5,7.6,3.5c0.2,0.1,0.2,0.3,0.3,0.5L53,24z M116.3,4.2L116.3,4.2
			C116.8,4.2,116.4,4.2,116.3,4.2c2,0,3.7,1.6,3.7,3.6V24h-7.3V9.6c0-1-0.8-1.8-1.8-1.9c-1,0-1.9,0.8-1.9,1.7v0.1v14.4h-7.3V7.8h-5
			l7.1-3.3c0.5-0.2,1-0.3,1.6-0.3c1.8,0,3.3,1.3,3.6,3l5.8-2.7C115.3,4.4,115.8,4.2,116.3,4.2L116.3,4.2z M19.6,22.2
			c3.4,0,6.5-1.7,8.3-4.2l0.4,1.4c-0.1,0.2-0.3,0.3-0.4,0.5c-2.6,2.8-7.2,4.7-12.4,4.7s-9.8-1.9-12.4-4.7C1.2,17.8,0,15.2,0,12.3
			s1.1-5.5,3.1-7.6C5.7,1.9,10.3,0,15.6,0c3.7,0,7.1,0.9,9.5,2.3c1.9,1.1,3.5,2.6,4.6,4.3l-10.1,5.7L25,3.9c-1.6-1-3.5-1.5-5.4-1.5
			C14,2.4,9.5,6.8,9.5,12.3S14,22.2,19.6,22.2S19.6,22.2,19.6,22.2z"/>
	</g>
</g>
</svg>
