<?xml version="1.0" encoding="utf-8"?>
<!-- Generator: Adobe Illustrator 23.0.3, SVG Export Plug-In . SVG Version: 6.00 Build 0)  -->
<svg version="1.1" id="svg2" xmlns:svg="http://www.w3.org/2000/svg"
	 xmlns="http://www.w3.org/2000/svg" xmlns:xlink="http://www.w3.org/1999/xlink" x="0px" y="0px" viewBox="0 0 120 25.9"
	 style="enable-background:new 0 0 120 25.9;" xml:space="preserve">
<style type="text/css">
	.st0{fill-rule:evenodd;clip-rule:evenodd;fill:#FFFFFF;}
</style>
<g id="layer1" transform="translate(934.33148,72.519597)">
	<g id="g2688" transform="translate(35.44754,35.43742)">
		<path id="path2416" class="st0" d="M-853.5-108c-2.1,0-3.7,1.6-3.7,3.7s1.6,3.7,3.7,3.7c2.1,0,3.7-1.6,3.7-3.7
			C-849.8-106.3-851.4-108-853.5-108z M-853.5-107.4c1.8,0,3.1,1.4,3.1,3.2s-1.3,3.2-3.1,3.2s-3.1-1.4-3.1-3.2
			S-855.3-107.4-853.5-107.4z M-854.3-104h0.9l1.2,1.9h0.6l-1.3-1.9c0.6-0.1,1.1-0.4,1.1-1.2c0-0.8-0.4-1.2-1.4-1.2h-1.6v4.3h0.5
			V-104z M-854.3-104.5v-1.5h1c0.5,0,1,0.1,1,0.7c0,0.7-0.6,0.7-1.3,0.7h-0.7"/>
		<path id="path2424" class="st0" d="M-871.3-106.4h7.4l-6.7,18.4h15.8l-2.2,5.9h-23.2L-871.3-106.4z M-899.7-106.4h7.1l-3.1,8.6
			h8.9l3.1-8.6h7.3l-8.9,24.4h-7.3l3.6-10h-8.9l-3.6,10h-7.1L-899.7-106.4z M-921.2-82.1h7.4l8.9-24.4h-7.4L-921.2-82.1z
			 M-938.6-82.1h7.4l6.7-18.4h7.7l2.2-5.9h-22.7l-2.2,5.9h7.6L-938.6-82.1z M-939.4-106.4h-17.7c-2.5,0-4.2,1.6-5,3.8l-2.3,6.4
			c-1,2.9,0.4,5,3.3,5h9.2c0.4,0,0.7,0.4,0.5,0.8l-0.6,1.6c-0.2,0.4-0.7,0.8-1.1,0.8h-14.5l-2.2,5.9h18.7c2.1,0,3.9-1,5-3.9l2.2-6.1
			c1.1-2.9-0.5-5-3.1-5h-9.3c-0.5,0-0.7-0.4-0.5-0.8l0.6-1.6c0.2-0.5,0.6-1,1.3-1h13.3L-939.4-106.4"/>
	</g>
</g>
</svg>
